<?xml version="1.0" encoding="UTF-8"?><svg id="Layer_2" xmlns="http://www.w3.org/2000/svg" viewBox="0 0 880 650"><defs><style>.cls-1{fill:#b5d257;}.cls-2{fill:#459a4e;}</style></defs><polygon class="cls-1" points="180 50 280 50 280 0 780 0 780 50 880 50 880 150 830 150 830 200 780 200 780 250 880 250 880 300 830 300 830 350 780 350 780 400 830 400 830 500 730 500 730 550 630.5 550 630 600 430 600 430 550 330 550 330 500 230 500 230 400 280 400 280 350 230 350 230 300 180 300 180 250 280 250 280 200 230 200 230 150 180 150 180 50"/><rect class="cls-2" x="130" y="50" width="50" height="100"/><rect class="cls-2" x="180" y="150" width="50" height="50"/><rect class="cls-2" x="230" y="200" width="50" height="50"/><rect class="cls-2" x="130" y="250" width="50" height="50"/><rect class="cls-2" x="180" y="300" width="50" height="50"/><rect class="cls-2" x="230" y="350" width="50" height="50"/><rect class="cls-2" x="180" y="400" width="50" height="100"/><rect class="cls-2" x="230" y="500" width="100" height="50"/><rect class="cls-2" x="330" y="550" width="100" height="50"/><rect class="cls-2" x="430" y="600" width="200" height="50"/><rect class="cls-2" x="630.5" y="550" width="99.5" height="50"/><rect class="cls-2" x="730" y="500" width="100" height="50"/><rect class="cls-2" x="780" y="350" width="50" height="50"/><rect class="cls-2" x="830" y="300" width="50" height="50"/><rect class="cls-2" x="780" y="200" width="50" height="50"/><rect class="cls-2" x="830" y="150" width="50" height="50"/><rect class="cls-2" x="330" y="250" width="50" height="50"/><rect class="cls-2" x="380" y="200" width="50" height="50"/><rect class="cls-2" x="430" y="250" width="49.86" height="49.86"/><rect class="cls-2" x="580" y="250" width="50" height="50"/><rect class="cls-2" x="630" y="200" width="50" height="50"/><rect class="cls-2" x="680" y="250" width="50" height="50"/><polygon class="cls-2" points="430.14 350 630.14 350 630.14 400 580.14 400 580.29 449.99 480 450 480 400 430 400 430.14 350"/><rect class="cls-2" x="82.5" y="57.5" width="35" height="35"/><rect class="cls-2" x="82.5" y="107.5" width="35" height="35"/><rect class="cls-2" x="132.5" y="157.5" width="35" height="35"/><rect class="cls-2" x="182.5" y="207.5" width="35" height="35"/><rect class="cls-2" x="82.5" y="257.5" width="35" height="35"/><rect class="cls-2" x="132.5" y="307.5" width="35" height="35"/><rect class="cls-2" x="182.5" y="357.5" width="35" height="35"/><rect class="cls-2" x="132.5" y="407.5" width="35" height="35"/><rect class="cls-2" x="132.5" y="457.5" width="35" height="35"/><rect class="cls-2" x="182.5" y="507.5" width="35" height="35"/><rect class="cls-2" x="282.5" y="557.5" width="35" height="35"/><rect class="cls-2" x="35" y="65" width="20" height="20"/><rect class="cls-2" x="35" y="115" width="20" height="20"/><rect class="cls-2" x="85" y="165" width="20" height="20"/><rect class="cls-2" x="135" y="215" width="20" height="20"/><rect class="cls-2" x="35" y="265" width="20" height="20"/><rect class="cls-2" x="85" y="315" width="20" height="20"/><rect class="cls-2" x="135" y="365" width="20" height="20"/><rect class="cls-2" x="85" y="415" width="20" height="20"/><rect class="cls-2" x="85" y="465" width="20" height="20"/><rect class="cls-2" x="135" y="515" width="20" height="20"/><rect class="cls-2" x="235" y="565" width="20" height="20"/><rect class="cls-2" y="70" width="10" height="10"/><rect class="cls-2" y="120" width="10" height="10"/><rect class="cls-2" x="50" y="170" width="10" height="10"/><rect class="cls-2" x="102.5" y="220" width="10" height="10"/><rect class="cls-2" x="0" y="270" width="10" height="10"/><rect class="cls-2" x="50" y="320" width="10" height="10"/><rect class="cls-2" x="100" y="370" width="10" height="10"/><rect class="cls-2" x="50" y="420" width="10" height="10"/><rect class="cls-2" x="50" y="470" width="10" height="10"/><rect class="cls-2" x="100" y="520" width="10" height="10"/><rect class="cls-2" x="200" y="570" width="10" height="10"/><rect class="cls-2" x="382.5" y="607.5" width="35" height="35"/><rect class="cls-2" x="335" y="615" width="20" height="20"/><rect class="cls-2" x="300" y="620" width="10" height="10"/></svg>